M48
; DRILL file {KiCad 8.0.2} date 2025-03-14T14:53:01-0400
; FORMAT={-:-/ absolute / metric / decimal}
; #@! TF.CreationDate,2025-03-14T14:53:01-04:00
; #@! TF.GenerationSoftware,Kicad,Pcbnew,8.0.2
; #@! TF.FileFunction,Plated,1,2,PTH
FMAT,2
METRIC
; #@! TA.AperFunction,Plated,PTH,ComponentDrill
T1C1.000
; #@! TA.AperFunction,Plated,PTH,ComponentDrill
T2C3.000
%
G90
G05
T1
X46.1Y-56.62
X46.1Y-59.16
X46.1Y-61.7
X49.425Y-79.3
X49.535Y-74.3
X51.1Y-56.58
X51.1Y-59.12
X51.1Y-61.66
X51.1Y-64.2
X51.965Y-79.3
X52.075Y-74.3
X59.16Y-43.74
X59.16Y-46.28
X59.16Y-48.82
X59.16Y-51.36
X59.16Y-53.9
X59.16Y-56.44
X59.16Y-58.98
X59.16Y-61.52
X59.16Y-64.06
X59.16Y-66.6
X59.16Y-69.14
X59.16Y-71.68
X59.16Y-74.22
X59.16Y-76.76
X59.16Y-79.3
X74.4Y-43.74
X74.4Y-46.28
X74.4Y-48.82
X74.4Y-51.36
X74.4Y-53.9
X74.4Y-56.44
X74.4Y-58.98
X74.4Y-61.52
X74.4Y-64.06
X74.4Y-66.6
X74.4Y-69.14
X74.4Y-71.68
X74.4Y-74.22
X74.4Y-76.76
X74.4Y-79.3
T2
X49.0Y-43.9
X67.1Y-82.1
M30
