%TF.GenerationSoftware,KiCad,Pcbnew,8.0.2*%
%TF.CreationDate,2025-03-14T14:52:26-04:00*%
%TF.ProjectId,SeniorDesignPCB,53656e69-6f72-4446-9573-69676e504342,rev?*%
%TF.SameCoordinates,Original*%
%TF.FileFunction,Soldermask,Top*%
%TF.FilePolarity,Negative*%
%FSLAX46Y46*%
G04 Gerber Fmt 4.6, Leading zero omitted, Abs format (unit mm)*
G04 Created by KiCad (PCBNEW 8.0.2) date 2025-03-14 14:52:26*
%MOMM*%
%LPD*%
G01*
G04 APERTURE LIST*
G04 Aperture macros list*
%AMRoundRect*
0 Rectangle with rounded corners*
0 $1 Rounding radius*
0 $2 $3 $4 $5 $6 $7 $8 $9 X,Y pos of 4 corners*
0 Add a 4 corners polygon primitive as box body*
4,1,4,$2,$3,$4,$5,$6,$7,$8,$9,$2,$3,0*
0 Add four circle primitives for the rounded corners*
1,1,$1+$1,$2,$3*
1,1,$1+$1,$4,$5*
1,1,$1+$1,$6,$7*
1,1,$1+$1,$8,$9*
0 Add four rect primitives between the rounded corners*
20,1,$1+$1,$2,$3,$4,$5,0*
20,1,$1+$1,$4,$5,$6,$7,0*
20,1,$1+$1,$6,$7,$8,$9,0*
20,1,$1+$1,$8,$9,$2,$3,0*%
G04 Aperture macros list end*
%ADD10C,6.000000*%
%ADD11R,1.700000X1.700000*%
%ADD12O,1.700000X1.700000*%
%ADD13R,1.600000X1.600000*%
%ADD14O,1.600000X1.600000*%
%ADD15RoundRect,0.250000X-0.337500X-0.475000X0.337500X-0.475000X0.337500X0.475000X-0.337500X0.475000X0*%
%ADD16RoundRect,0.250000X0.337500X0.475000X-0.337500X0.475000X-0.337500X-0.475000X0.337500X-0.475000X0*%
G04 APERTURE END LIST*
D10*
%TO.C,*%
X67100000Y-82100000D03*
%TD*%
%TO.C,REF\u002A\u002A*%
X49000000Y-43900000D03*
%TD*%
D11*
%TO.C,J1*%
X52075000Y-74300000D03*
D12*
X49535000Y-74300000D03*
%TD*%
D11*
%TO.C,J2*%
X51100000Y-56580000D03*
D12*
X51100000Y-59120000D03*
X51100000Y-61660000D03*
X51100000Y-64200000D03*
%TD*%
D13*
%TO.C,U1*%
X59160000Y-43740000D03*
D14*
X59160000Y-46280000D03*
X59160000Y-48820000D03*
X59160000Y-51360000D03*
X59160000Y-53900000D03*
X59160000Y-56440000D03*
X59160000Y-58980000D03*
X59160000Y-61520000D03*
X59160000Y-64060000D03*
X59160000Y-66600000D03*
X59160000Y-69140000D03*
X59160000Y-71680000D03*
X59160000Y-74220000D03*
X59160000Y-76760000D03*
X59160000Y-79300000D03*
X74400000Y-79300000D03*
X74400000Y-76760000D03*
X74400000Y-74220000D03*
X74400000Y-71680000D03*
X74400000Y-69140000D03*
X74400000Y-66600000D03*
X74400000Y-64060000D03*
X74400000Y-61520000D03*
X74400000Y-58980000D03*
X74400000Y-56440000D03*
X74400000Y-53900000D03*
X74400000Y-51360000D03*
X74400000Y-48820000D03*
X74400000Y-46280000D03*
X74400000Y-43740000D03*
%TD*%
D11*
%TO.C,J4*%
X49425000Y-79300000D03*
D12*
X51965000Y-79300000D03*
%TD*%
D15*
%TO.C,C3*%
X50262500Y-50900000D03*
X52337500Y-50900000D03*
%TD*%
D11*
%TO.C,J3*%
X46100000Y-56620000D03*
D12*
X46100000Y-59160000D03*
X46100000Y-61700000D03*
%TD*%
D15*
%TO.C,C2*%
X45062500Y-50900000D03*
X47137500Y-50900000D03*
%TD*%
D16*
%TO.C,C1*%
X51537500Y-69900000D03*
X49462500Y-69900000D03*
%TD*%
M02*
