%TF.GenerationSoftware,KiCad,Pcbnew,8.0.2*%
%TF.CreationDate,2025-03-14T14:52:26-04:00*%
%TF.ProjectId,SeniorDesignPCB,53656e69-6f72-4446-9573-69676e504342,rev?*%
%TF.SameCoordinates,Original*%
%TF.FileFunction,Legend,Bot*%
%TF.FilePolarity,Positive*%
%FSLAX46Y46*%
G04 Gerber Fmt 4.6, Leading zero omitted, Abs format (unit mm)*
G04 Created by KiCad (PCBNEW 8.0.2) date 2025-03-14 14:52:26*
%MOMM*%
%LPD*%
G01*
G04 APERTURE LIST*
%ADD10C,0.100000*%
%ADD11C,6.000000*%
%ADD12R,1.700000X1.700000*%
%ADD13O,1.700000X1.700000*%
%ADD14R,1.600000X1.600000*%
%ADD15O,1.600000X1.600000*%
G04 APERTURE END LIST*
D10*
X72838972Y-40162475D02*
X72505639Y-41162475D01*
X72505639Y-41162475D02*
X72172306Y-40162475D01*
X71696115Y-41162475D02*
X71791353Y-41114856D01*
X71791353Y-41114856D02*
X71838972Y-41067236D01*
X71838972Y-41067236D02*
X71886591Y-40971998D01*
X71886591Y-40971998D02*
X71886591Y-40686284D01*
X71886591Y-40686284D02*
X71838972Y-40591046D01*
X71838972Y-40591046D02*
X71791353Y-40543427D01*
X71791353Y-40543427D02*
X71696115Y-40495808D01*
X71696115Y-40495808D02*
X71553258Y-40495808D01*
X71553258Y-40495808D02*
X71458020Y-40543427D01*
X71458020Y-40543427D02*
X71410401Y-40591046D01*
X71410401Y-40591046D02*
X71362782Y-40686284D01*
X71362782Y-40686284D02*
X71362782Y-40971998D01*
X71362782Y-40971998D02*
X71410401Y-41067236D01*
X71410401Y-41067236D02*
X71458020Y-41114856D01*
X71458020Y-41114856D02*
X71553258Y-41162475D01*
X71553258Y-41162475D02*
X71696115Y-41162475D01*
X70791353Y-41162475D02*
X70886591Y-41114856D01*
X70886591Y-41114856D02*
X70934210Y-41019617D01*
X70934210Y-41019617D02*
X70934210Y-40162475D01*
X70267543Y-41162475D02*
X70362781Y-41114856D01*
X70362781Y-41114856D02*
X70410400Y-41019617D01*
X70410400Y-41019617D02*
X70410400Y-40162475D01*
X69505638Y-41114856D02*
X69600876Y-41162475D01*
X69600876Y-41162475D02*
X69791352Y-41162475D01*
X69791352Y-41162475D02*
X69886590Y-41114856D01*
X69886590Y-41114856D02*
X69934209Y-41019617D01*
X69934209Y-41019617D02*
X69934209Y-40638665D01*
X69934209Y-40638665D02*
X69886590Y-40543427D01*
X69886590Y-40543427D02*
X69791352Y-40495808D01*
X69791352Y-40495808D02*
X69600876Y-40495808D01*
X69600876Y-40495808D02*
X69505638Y-40543427D01*
X69505638Y-40543427D02*
X69458019Y-40638665D01*
X69458019Y-40638665D02*
X69458019Y-40733903D01*
X69458019Y-40733903D02*
X69934209Y-40829141D01*
X69124685Y-40495808D02*
X68886590Y-41162475D01*
X68648495Y-40495808D02*
X68886590Y-41162475D01*
X68886590Y-41162475D02*
X68981828Y-41400570D01*
X68981828Y-41400570D02*
X69029447Y-41448189D01*
X69029447Y-41448189D02*
X69124685Y-41495808D01*
X67505637Y-41162475D02*
X67505637Y-40162475D01*
X67505637Y-40162475D02*
X67172304Y-40876760D01*
X67172304Y-40876760D02*
X66838971Y-40162475D01*
X66838971Y-40162475D02*
X66838971Y-41162475D01*
X65934209Y-41162475D02*
X65934209Y-40638665D01*
X65934209Y-40638665D02*
X65981828Y-40543427D01*
X65981828Y-40543427D02*
X66077066Y-40495808D01*
X66077066Y-40495808D02*
X66267542Y-40495808D01*
X66267542Y-40495808D02*
X66362780Y-40543427D01*
X65934209Y-41114856D02*
X66029447Y-41162475D01*
X66029447Y-41162475D02*
X66267542Y-41162475D01*
X66267542Y-41162475D02*
X66362780Y-41114856D01*
X66362780Y-41114856D02*
X66410399Y-41019617D01*
X66410399Y-41019617D02*
X66410399Y-40924379D01*
X66410399Y-40924379D02*
X66362780Y-40829141D01*
X66362780Y-40829141D02*
X66267542Y-40781522D01*
X66267542Y-40781522D02*
X66029447Y-40781522D01*
X66029447Y-40781522D02*
X65934209Y-40733903D01*
X65505637Y-41114856D02*
X65410399Y-41162475D01*
X65410399Y-41162475D02*
X65219923Y-41162475D01*
X65219923Y-41162475D02*
X65124685Y-41114856D01*
X65124685Y-41114856D02*
X65077066Y-41019617D01*
X65077066Y-41019617D02*
X65077066Y-40971998D01*
X65077066Y-40971998D02*
X65124685Y-40876760D01*
X65124685Y-40876760D02*
X65219923Y-40829141D01*
X65219923Y-40829141D02*
X65362780Y-40829141D01*
X65362780Y-40829141D02*
X65458018Y-40781522D01*
X65458018Y-40781522D02*
X65505637Y-40686284D01*
X65505637Y-40686284D02*
X65505637Y-40638665D01*
X65505637Y-40638665D02*
X65458018Y-40543427D01*
X65458018Y-40543427D02*
X65362780Y-40495808D01*
X65362780Y-40495808D02*
X65219923Y-40495808D01*
X65219923Y-40495808D02*
X65124685Y-40543427D01*
X64791351Y-40495808D02*
X64410399Y-40495808D01*
X64648494Y-40162475D02*
X64648494Y-41019617D01*
X64648494Y-41019617D02*
X64600875Y-41114856D01*
X64600875Y-41114856D02*
X64505637Y-41162475D01*
X64505637Y-41162475D02*
X64410399Y-41162475D01*
X63696113Y-41114856D02*
X63791351Y-41162475D01*
X63791351Y-41162475D02*
X63981827Y-41162475D01*
X63981827Y-41162475D02*
X64077065Y-41114856D01*
X64077065Y-41114856D02*
X64124684Y-41019617D01*
X64124684Y-41019617D02*
X64124684Y-40638665D01*
X64124684Y-40638665D02*
X64077065Y-40543427D01*
X64077065Y-40543427D02*
X63981827Y-40495808D01*
X63981827Y-40495808D02*
X63791351Y-40495808D01*
X63791351Y-40495808D02*
X63696113Y-40543427D01*
X63696113Y-40543427D02*
X63648494Y-40638665D01*
X63648494Y-40638665D02*
X63648494Y-40733903D01*
X63648494Y-40733903D02*
X64124684Y-40829141D01*
X63219922Y-41162475D02*
X63219922Y-40495808D01*
X63219922Y-40686284D02*
X63172303Y-40591046D01*
X63172303Y-40591046D02*
X63124684Y-40543427D01*
X63124684Y-40543427D02*
X63029446Y-40495808D01*
X63029446Y-40495808D02*
X62934208Y-40495808D01*
X61838969Y-41162475D02*
X61838969Y-40162475D01*
X61838969Y-40162475D02*
X61458017Y-40162475D01*
X61458017Y-40162475D02*
X61362779Y-40210094D01*
X61362779Y-40210094D02*
X61315160Y-40257713D01*
X61315160Y-40257713D02*
X61267541Y-40352951D01*
X61267541Y-40352951D02*
X61267541Y-40495808D01*
X61267541Y-40495808D02*
X61315160Y-40591046D01*
X61315160Y-40591046D02*
X61362779Y-40638665D01*
X61362779Y-40638665D02*
X61458017Y-40686284D01*
X61458017Y-40686284D02*
X61838969Y-40686284D01*
X60267541Y-41067236D02*
X60315160Y-41114856D01*
X60315160Y-41114856D02*
X60458017Y-41162475D01*
X60458017Y-41162475D02*
X60553255Y-41162475D01*
X60553255Y-41162475D02*
X60696112Y-41114856D01*
X60696112Y-41114856D02*
X60791350Y-41019617D01*
X60791350Y-41019617D02*
X60838969Y-40924379D01*
X60838969Y-40924379D02*
X60886588Y-40733903D01*
X60886588Y-40733903D02*
X60886588Y-40591046D01*
X60886588Y-40591046D02*
X60838969Y-40400570D01*
X60838969Y-40400570D02*
X60791350Y-40305332D01*
X60791350Y-40305332D02*
X60696112Y-40210094D01*
X60696112Y-40210094D02*
X60553255Y-40162475D01*
X60553255Y-40162475D02*
X60458017Y-40162475D01*
X60458017Y-40162475D02*
X60315160Y-40210094D01*
X60315160Y-40210094D02*
X60267541Y-40257713D01*
X59505636Y-40638665D02*
X59362779Y-40686284D01*
X59362779Y-40686284D02*
X59315160Y-40733903D01*
X59315160Y-40733903D02*
X59267541Y-40829141D01*
X59267541Y-40829141D02*
X59267541Y-40971998D01*
X59267541Y-40971998D02*
X59315160Y-41067236D01*
X59315160Y-41067236D02*
X59362779Y-41114856D01*
X59362779Y-41114856D02*
X59458017Y-41162475D01*
X59458017Y-41162475D02*
X59838969Y-41162475D01*
X59838969Y-41162475D02*
X59838969Y-40162475D01*
X59838969Y-40162475D02*
X59505636Y-40162475D01*
X59505636Y-40162475D02*
X59410398Y-40210094D01*
X59410398Y-40210094D02*
X59362779Y-40257713D01*
X59362779Y-40257713D02*
X59315160Y-40352951D01*
X59315160Y-40352951D02*
X59315160Y-40448189D01*
X59315160Y-40448189D02*
X59362779Y-40543427D01*
X59362779Y-40543427D02*
X59410398Y-40591046D01*
X59410398Y-40591046D02*
X59505636Y-40638665D01*
X59505636Y-40638665D02*
X59838969Y-40638665D01*
X57553255Y-41162475D02*
X58124683Y-41162475D01*
X57838969Y-41162475D02*
X57838969Y-40162475D01*
X57838969Y-40162475D02*
X57934207Y-40305332D01*
X57934207Y-40305332D02*
X58029445Y-40400570D01*
X58029445Y-40400570D02*
X58124683Y-40448189D01*
X57124683Y-41067236D02*
X57077064Y-41114856D01*
X57077064Y-41114856D02*
X57124683Y-41162475D01*
X57124683Y-41162475D02*
X57172302Y-41114856D01*
X57172302Y-41114856D02*
X57124683Y-41067236D01*
X57124683Y-41067236D02*
X57124683Y-41162475D01*
X56458017Y-40162475D02*
X56362779Y-40162475D01*
X56362779Y-40162475D02*
X56267541Y-40210094D01*
X56267541Y-40210094D02*
X56219922Y-40257713D01*
X56219922Y-40257713D02*
X56172303Y-40352951D01*
X56172303Y-40352951D02*
X56124684Y-40543427D01*
X56124684Y-40543427D02*
X56124684Y-40781522D01*
X56124684Y-40781522D02*
X56172303Y-40971998D01*
X56172303Y-40971998D02*
X56219922Y-41067236D01*
X56219922Y-41067236D02*
X56267541Y-41114856D01*
X56267541Y-41114856D02*
X56362779Y-41162475D01*
X56362779Y-41162475D02*
X56458017Y-41162475D01*
X56458017Y-41162475D02*
X56553255Y-41114856D01*
X56553255Y-41114856D02*
X56600874Y-41067236D01*
X56600874Y-41067236D02*
X56648493Y-40971998D01*
X56648493Y-40971998D02*
X56696112Y-40781522D01*
X56696112Y-40781522D02*
X56696112Y-40543427D01*
X56696112Y-40543427D02*
X56648493Y-40352951D01*
X56648493Y-40352951D02*
X56600874Y-40257713D01*
X56600874Y-40257713D02*
X56553255Y-40210094D01*
X56553255Y-40210094D02*
X56458017Y-40162475D01*
X72696115Y-42772419D02*
X72696115Y-41772419D01*
X72124687Y-42772419D02*
X72553258Y-42200990D01*
X72124687Y-41772419D02*
X72696115Y-42343847D01*
X71791353Y-42105752D02*
X71553258Y-42772419D01*
X71315163Y-42105752D02*
X71553258Y-42772419D01*
X71553258Y-42772419D02*
X71648496Y-43010514D01*
X71648496Y-43010514D02*
X71696115Y-43058133D01*
X71696115Y-43058133D02*
X71791353Y-43105752D01*
X70791353Y-42772419D02*
X70886591Y-42724800D01*
X70886591Y-42724800D02*
X70934210Y-42629561D01*
X70934210Y-42629561D02*
X70934210Y-41772419D01*
X70029448Y-42724800D02*
X70124686Y-42772419D01*
X70124686Y-42772419D02*
X70315162Y-42772419D01*
X70315162Y-42772419D02*
X70410400Y-42724800D01*
X70410400Y-42724800D02*
X70458019Y-42629561D01*
X70458019Y-42629561D02*
X70458019Y-42248609D01*
X70458019Y-42248609D02*
X70410400Y-42153371D01*
X70410400Y-42153371D02*
X70315162Y-42105752D01*
X70315162Y-42105752D02*
X70124686Y-42105752D01*
X70124686Y-42105752D02*
X70029448Y-42153371D01*
X70029448Y-42153371D02*
X69981829Y-42248609D01*
X69981829Y-42248609D02*
X69981829Y-42343847D01*
X69981829Y-42343847D02*
X70458019Y-42439085D01*
X68791352Y-42772419D02*
X68791352Y-41772419D01*
X68791352Y-41772419D02*
X68219924Y-42772419D01*
X68219924Y-42772419D02*
X68219924Y-41772419D01*
X67315162Y-42105752D02*
X67315162Y-42915276D01*
X67315162Y-42915276D02*
X67362781Y-43010514D01*
X67362781Y-43010514D02*
X67410400Y-43058133D01*
X67410400Y-43058133D02*
X67505638Y-43105752D01*
X67505638Y-43105752D02*
X67648495Y-43105752D01*
X67648495Y-43105752D02*
X67743733Y-43058133D01*
X67315162Y-42724800D02*
X67410400Y-42772419D01*
X67410400Y-42772419D02*
X67600876Y-42772419D01*
X67600876Y-42772419D02*
X67696114Y-42724800D01*
X67696114Y-42724800D02*
X67743733Y-42677180D01*
X67743733Y-42677180D02*
X67791352Y-42581942D01*
X67791352Y-42581942D02*
X67791352Y-42296228D01*
X67791352Y-42296228D02*
X67743733Y-42200990D01*
X67743733Y-42200990D02*
X67696114Y-42153371D01*
X67696114Y-42153371D02*
X67600876Y-42105752D01*
X67600876Y-42105752D02*
X67410400Y-42105752D01*
X67410400Y-42105752D02*
X67315162Y-42153371D01*
X66410400Y-42105752D02*
X66410400Y-42772419D01*
X66838971Y-42105752D02*
X66838971Y-42629561D01*
X66838971Y-42629561D02*
X66791352Y-42724800D01*
X66791352Y-42724800D02*
X66696114Y-42772419D01*
X66696114Y-42772419D02*
X66553257Y-42772419D01*
X66553257Y-42772419D02*
X66458019Y-42724800D01*
X66458019Y-42724800D02*
X66410400Y-42677180D01*
X66029447Y-42105752D02*
X65791352Y-42772419D01*
X65553257Y-42105752D02*
X65791352Y-42772419D01*
X65791352Y-42772419D02*
X65886590Y-43010514D01*
X65886590Y-43010514D02*
X65934209Y-43058133D01*
X65934209Y-43058133D02*
X66029447Y-43105752D01*
X64791352Y-42724800D02*
X64886590Y-42772419D01*
X64886590Y-42772419D02*
X65077066Y-42772419D01*
X65077066Y-42772419D02*
X65172304Y-42724800D01*
X65172304Y-42724800D02*
X65219923Y-42629561D01*
X65219923Y-42629561D02*
X65219923Y-42248609D01*
X65219923Y-42248609D02*
X65172304Y-42153371D01*
X65172304Y-42153371D02*
X65077066Y-42105752D01*
X65077066Y-42105752D02*
X64886590Y-42105752D01*
X64886590Y-42105752D02*
X64791352Y-42153371D01*
X64791352Y-42153371D02*
X64743733Y-42248609D01*
X64743733Y-42248609D02*
X64743733Y-42343847D01*
X64743733Y-42343847D02*
X65219923Y-42439085D01*
X64315161Y-42105752D02*
X64315161Y-42772419D01*
X64315161Y-42200990D02*
X64267542Y-42153371D01*
X64267542Y-42153371D02*
X64172304Y-42105752D01*
X64172304Y-42105752D02*
X64029447Y-42105752D01*
X64029447Y-42105752D02*
X63934209Y-42153371D01*
X63934209Y-42153371D02*
X63886590Y-42248609D01*
X63886590Y-42248609D02*
X63886590Y-42772419D01*
X62648494Y-42677180D02*
X62600875Y-42724800D01*
X62600875Y-42724800D02*
X62648494Y-42772419D01*
X62648494Y-42772419D02*
X62696113Y-42724800D01*
X62696113Y-42724800D02*
X62648494Y-42677180D01*
X62648494Y-42677180D02*
X62648494Y-42772419D01*
X62648494Y-42153371D02*
X62600875Y-42200990D01*
X62600875Y-42200990D02*
X62648494Y-42248609D01*
X62648494Y-42248609D02*
X62696113Y-42200990D01*
X62696113Y-42200990D02*
X62648494Y-42153371D01*
X62648494Y-42153371D02*
X62648494Y-42248609D01*
X62267542Y-41772419D02*
X61648495Y-41772419D01*
X61648495Y-41772419D02*
X61981828Y-42153371D01*
X61981828Y-42153371D02*
X61838971Y-42153371D01*
X61838971Y-42153371D02*
X61743733Y-42200990D01*
X61743733Y-42200990D02*
X61696114Y-42248609D01*
X61696114Y-42248609D02*
X61648495Y-42343847D01*
X61648495Y-42343847D02*
X61648495Y-42581942D01*
X61648495Y-42581942D02*
X61696114Y-42677180D01*
X61696114Y-42677180D02*
X61743733Y-42724800D01*
X61743733Y-42724800D02*
X61838971Y-42772419D01*
X61838971Y-42772419D02*
X62124685Y-42772419D01*
X62124685Y-42772419D02*
X62219923Y-42724800D01*
X62219923Y-42724800D02*
X62267542Y-42677180D01*
%LPC*%
D11*
%TO.C,*%
X67100000Y-82100000D03*
%TD*%
%TO.C,REF\u002A\u002A*%
X49000000Y-43900000D03*
%TD*%
D12*
%TO.C,J1*%
X52075000Y-74300000D03*
D13*
X49535000Y-74300000D03*
%TD*%
D12*
%TO.C,J2*%
X51100000Y-56580000D03*
D13*
X51100000Y-59120000D03*
X51100000Y-61660000D03*
X51100000Y-64200000D03*
%TD*%
D14*
%TO.C,U1*%
X59160000Y-43740000D03*
D15*
X59160000Y-46280000D03*
X59160000Y-48820000D03*
X59160000Y-51360000D03*
X59160000Y-53900000D03*
X59160000Y-56440000D03*
X59160000Y-58980000D03*
X59160000Y-61520000D03*
X59160000Y-64060000D03*
X59160000Y-66600000D03*
X59160000Y-69140000D03*
X59160000Y-71680000D03*
X59160000Y-74220000D03*
X59160000Y-76760000D03*
X59160000Y-79300000D03*
X74400000Y-79300000D03*
X74400000Y-76760000D03*
X74400000Y-74220000D03*
X74400000Y-71680000D03*
X74400000Y-69140000D03*
X74400000Y-66600000D03*
X74400000Y-64060000D03*
X74400000Y-61520000D03*
X74400000Y-58980000D03*
X74400000Y-56440000D03*
X74400000Y-53900000D03*
X74400000Y-51360000D03*
X74400000Y-48820000D03*
X74400000Y-46280000D03*
X74400000Y-43740000D03*
%TD*%
D12*
%TO.C,J4*%
X49425000Y-79300000D03*
D13*
X51965000Y-79300000D03*
%TD*%
D12*
%TO.C,J3*%
X46100000Y-56620000D03*
D13*
X46100000Y-59160000D03*
X46100000Y-61700000D03*
%TD*%
%LPD*%
M02*
