%TF.GenerationSoftware,KiCad,Pcbnew,8.0.2*%
%TF.CreationDate,2025-03-14T14:52:26-04:00*%
%TF.ProjectId,SeniorDesignPCB,53656e69-6f72-4446-9573-69676e504342,rev?*%
%TF.SameCoordinates,Original*%
%TF.FileFunction,Legend,Top*%
%TF.FilePolarity,Positive*%
%FSLAX46Y46*%
G04 Gerber Fmt 4.6, Leading zero omitted, Abs format (unit mm)*
G04 Created by KiCad (PCBNEW 8.0.2) date 2025-03-14 14:52:26*
%MOMM*%
%LPD*%
G01*
G04 APERTURE LIST*
G04 Aperture macros list*
%AMRoundRect*
0 Rectangle with rounded corners*
0 $1 Rounding radius*
0 $2 $3 $4 $5 $6 $7 $8 $9 X,Y pos of 4 corners*
0 Add a 4 corners polygon primitive as box body*
4,1,4,$2,$3,$4,$5,$6,$7,$8,$9,$2,$3,0*
0 Add four circle primitives for the rounded corners*
1,1,$1+$1,$2,$3*
1,1,$1+$1,$4,$5*
1,1,$1+$1,$6,$7*
1,1,$1+$1,$8,$9*
0 Add four rect primitives between the rounded corners*
20,1,$1+$1,$2,$3,$4,$5,0*
20,1,$1+$1,$4,$5,$6,$7,0*
20,1,$1+$1,$6,$7,$8,$9,0*
20,1,$1+$1,$8,$9,$2,$3,0*%
G04 Aperture macros list end*
%ADD10C,0.100000*%
%ADD11C,0.150000*%
%ADD12C,0.120000*%
%ADD13C,6.000000*%
%ADD14R,1.700000X1.700000*%
%ADD15O,1.700000X1.700000*%
%ADD16R,1.600000X1.600000*%
%ADD17O,1.600000X1.600000*%
%ADD18RoundRect,0.250000X-0.337500X-0.475000X0.337500X-0.475000X0.337500X0.475000X-0.337500X0.475000X0*%
%ADD19RoundRect,0.250000X0.337500X0.475000X-0.337500X0.475000X-0.337500X-0.475000X0.337500X-0.475000X0*%
G04 APERTURE END LIST*
D10*
X44803884Y-64972419D02*
X44803884Y-63972419D01*
X44803884Y-64448609D02*
X45375312Y-64448609D01*
X45375312Y-64972419D02*
X45375312Y-63972419D01*
X46280074Y-64972419D02*
X46280074Y-64448609D01*
X46280074Y-64448609D02*
X46232455Y-64353371D01*
X46232455Y-64353371D02*
X46137217Y-64305752D01*
X46137217Y-64305752D02*
X45946741Y-64305752D01*
X45946741Y-64305752D02*
X45851503Y-64353371D01*
X46280074Y-64924800D02*
X46184836Y-64972419D01*
X46184836Y-64972419D02*
X45946741Y-64972419D01*
X45946741Y-64972419D02*
X45851503Y-64924800D01*
X45851503Y-64924800D02*
X45803884Y-64829561D01*
X45803884Y-64829561D02*
X45803884Y-64734323D01*
X45803884Y-64734323D02*
X45851503Y-64639085D01*
X45851503Y-64639085D02*
X45946741Y-64591466D01*
X45946741Y-64591466D02*
X46184836Y-64591466D01*
X46184836Y-64591466D02*
X46280074Y-64543847D01*
X46899122Y-64972419D02*
X46803884Y-64924800D01*
X46803884Y-64924800D02*
X46756265Y-64829561D01*
X46756265Y-64829561D02*
X46756265Y-63972419D01*
X47422932Y-64972419D02*
X47327694Y-64924800D01*
X47327694Y-64924800D02*
X47280075Y-64829561D01*
X47280075Y-64829561D02*
X47280075Y-63972419D01*
X53056265Y-59524800D02*
X53199122Y-59572419D01*
X53199122Y-59572419D02*
X53437217Y-59572419D01*
X53437217Y-59572419D02*
X53532455Y-59524800D01*
X53532455Y-59524800D02*
X53580074Y-59477180D01*
X53580074Y-59477180D02*
X53627693Y-59381942D01*
X53627693Y-59381942D02*
X53627693Y-59286704D01*
X53627693Y-59286704D02*
X53580074Y-59191466D01*
X53580074Y-59191466D02*
X53532455Y-59143847D01*
X53532455Y-59143847D02*
X53437217Y-59096228D01*
X53437217Y-59096228D02*
X53246741Y-59048609D01*
X53246741Y-59048609D02*
X53151503Y-59000990D01*
X53151503Y-59000990D02*
X53103884Y-58953371D01*
X53103884Y-58953371D02*
X53056265Y-58858133D01*
X53056265Y-58858133D02*
X53056265Y-58762895D01*
X53056265Y-58762895D02*
X53103884Y-58667657D01*
X53103884Y-58667657D02*
X53151503Y-58620038D01*
X53151503Y-58620038D02*
X53246741Y-58572419D01*
X53246741Y-58572419D02*
X53484836Y-58572419D01*
X53484836Y-58572419D02*
X53627693Y-58620038D01*
X54056265Y-59572419D02*
X54056265Y-58572419D01*
X54056265Y-58572419D02*
X54294360Y-58572419D01*
X54294360Y-58572419D02*
X54437217Y-58620038D01*
X54437217Y-58620038D02*
X54532455Y-58715276D01*
X54532455Y-58715276D02*
X54580074Y-58810514D01*
X54580074Y-58810514D02*
X54627693Y-59000990D01*
X54627693Y-59000990D02*
X54627693Y-59143847D01*
X54627693Y-59143847D02*
X54580074Y-59334323D01*
X54580074Y-59334323D02*
X54532455Y-59429561D01*
X54532455Y-59429561D02*
X54437217Y-59524800D01*
X54437217Y-59524800D02*
X54294360Y-59572419D01*
X54294360Y-59572419D02*
X54056265Y-59572419D01*
X55008646Y-59286704D02*
X55484836Y-59286704D01*
X54913408Y-59572419D02*
X55246741Y-58572419D01*
X55246741Y-58572419D02*
X55580074Y-59572419D01*
X53056265Y-62024800D02*
X53199122Y-62072419D01*
X53199122Y-62072419D02*
X53437217Y-62072419D01*
X53437217Y-62072419D02*
X53532455Y-62024800D01*
X53532455Y-62024800D02*
X53580074Y-61977180D01*
X53580074Y-61977180D02*
X53627693Y-61881942D01*
X53627693Y-61881942D02*
X53627693Y-61786704D01*
X53627693Y-61786704D02*
X53580074Y-61691466D01*
X53580074Y-61691466D02*
X53532455Y-61643847D01*
X53532455Y-61643847D02*
X53437217Y-61596228D01*
X53437217Y-61596228D02*
X53246741Y-61548609D01*
X53246741Y-61548609D02*
X53151503Y-61500990D01*
X53151503Y-61500990D02*
X53103884Y-61453371D01*
X53103884Y-61453371D02*
X53056265Y-61358133D01*
X53056265Y-61358133D02*
X53056265Y-61262895D01*
X53056265Y-61262895D02*
X53103884Y-61167657D01*
X53103884Y-61167657D02*
X53151503Y-61120038D01*
X53151503Y-61120038D02*
X53246741Y-61072419D01*
X53246741Y-61072419D02*
X53484836Y-61072419D01*
X53484836Y-61072419D02*
X53627693Y-61120038D01*
X54627693Y-61977180D02*
X54580074Y-62024800D01*
X54580074Y-62024800D02*
X54437217Y-62072419D01*
X54437217Y-62072419D02*
X54341979Y-62072419D01*
X54341979Y-62072419D02*
X54199122Y-62024800D01*
X54199122Y-62024800D02*
X54103884Y-61929561D01*
X54103884Y-61929561D02*
X54056265Y-61834323D01*
X54056265Y-61834323D02*
X54008646Y-61643847D01*
X54008646Y-61643847D02*
X54008646Y-61500990D01*
X54008646Y-61500990D02*
X54056265Y-61310514D01*
X54056265Y-61310514D02*
X54103884Y-61215276D01*
X54103884Y-61215276D02*
X54199122Y-61120038D01*
X54199122Y-61120038D02*
X54341979Y-61072419D01*
X54341979Y-61072419D02*
X54437217Y-61072419D01*
X54437217Y-61072419D02*
X54580074Y-61120038D01*
X54580074Y-61120038D02*
X54627693Y-61167657D01*
X55532455Y-62072419D02*
X55056265Y-62072419D01*
X55056265Y-62072419D02*
X55056265Y-61072419D01*
X52496115Y-71808533D02*
X51734211Y-71808533D01*
X53108646Y-55972419D02*
X53727693Y-55972419D01*
X53727693Y-55972419D02*
X53394360Y-56353371D01*
X53394360Y-56353371D02*
X53537217Y-56353371D01*
X53537217Y-56353371D02*
X53632455Y-56400990D01*
X53632455Y-56400990D02*
X53680074Y-56448609D01*
X53680074Y-56448609D02*
X53727693Y-56543847D01*
X53727693Y-56543847D02*
X53727693Y-56781942D01*
X53727693Y-56781942D02*
X53680074Y-56877180D01*
X53680074Y-56877180D02*
X53632455Y-56924800D01*
X53632455Y-56924800D02*
X53537217Y-56972419D01*
X53537217Y-56972419D02*
X53251503Y-56972419D01*
X53251503Y-56972419D02*
X53156265Y-56924800D01*
X53156265Y-56924800D02*
X53108646Y-56877180D01*
X54156265Y-56877180D02*
X54203884Y-56924800D01*
X54203884Y-56924800D02*
X54156265Y-56972419D01*
X54156265Y-56972419D02*
X54108646Y-56924800D01*
X54108646Y-56924800D02*
X54156265Y-56877180D01*
X54156265Y-56877180D02*
X54156265Y-56972419D01*
X54537217Y-55972419D02*
X55156264Y-55972419D01*
X55156264Y-55972419D02*
X54822931Y-56353371D01*
X54822931Y-56353371D02*
X54965788Y-56353371D01*
X54965788Y-56353371D02*
X55061026Y-56400990D01*
X55061026Y-56400990D02*
X55108645Y-56448609D01*
X55108645Y-56448609D02*
X55156264Y-56543847D01*
X55156264Y-56543847D02*
X55156264Y-56781942D01*
X55156264Y-56781942D02*
X55108645Y-56877180D01*
X55108645Y-56877180D02*
X55061026Y-56924800D01*
X55061026Y-56924800D02*
X54965788Y-56972419D01*
X54965788Y-56972419D02*
X54680074Y-56972419D01*
X54680074Y-56972419D02*
X54584836Y-56924800D01*
X54584836Y-56924800D02*
X54537217Y-56877180D01*
X55441979Y-55972419D02*
X55775312Y-56972419D01*
X55775312Y-56972419D02*
X56108645Y-55972419D01*
X53727693Y-63820038D02*
X53632455Y-63772419D01*
X53632455Y-63772419D02*
X53489598Y-63772419D01*
X53489598Y-63772419D02*
X53346741Y-63820038D01*
X53346741Y-63820038D02*
X53251503Y-63915276D01*
X53251503Y-63915276D02*
X53203884Y-64010514D01*
X53203884Y-64010514D02*
X53156265Y-64200990D01*
X53156265Y-64200990D02*
X53156265Y-64343847D01*
X53156265Y-64343847D02*
X53203884Y-64534323D01*
X53203884Y-64534323D02*
X53251503Y-64629561D01*
X53251503Y-64629561D02*
X53346741Y-64724800D01*
X53346741Y-64724800D02*
X53489598Y-64772419D01*
X53489598Y-64772419D02*
X53584836Y-64772419D01*
X53584836Y-64772419D02*
X53727693Y-64724800D01*
X53727693Y-64724800D02*
X53775312Y-64677180D01*
X53775312Y-64677180D02*
X53775312Y-64343847D01*
X53775312Y-64343847D02*
X53584836Y-64343847D01*
X54203884Y-64772419D02*
X54203884Y-63772419D01*
X54203884Y-63772419D02*
X54775312Y-64772419D01*
X54775312Y-64772419D02*
X54775312Y-63772419D01*
X55251503Y-64772419D02*
X55251503Y-63772419D01*
X55251503Y-63772419D02*
X55489598Y-63772419D01*
X55489598Y-63772419D02*
X55632455Y-63820038D01*
X55632455Y-63820038D02*
X55727693Y-63915276D01*
X55727693Y-63915276D02*
X55775312Y-64010514D01*
X55775312Y-64010514D02*
X55822931Y-64200990D01*
X55822931Y-64200990D02*
X55822931Y-64343847D01*
X55822931Y-64343847D02*
X55775312Y-64534323D01*
X55775312Y-64534323D02*
X55727693Y-64629561D01*
X55727693Y-64629561D02*
X55632455Y-64724800D01*
X55632455Y-64724800D02*
X55489598Y-64772419D01*
X55489598Y-64772419D02*
X55251503Y-64772419D01*
X49896115Y-71808533D02*
X49134211Y-71808533D01*
X49515163Y-71427580D02*
X49515163Y-72189485D01*
D11*
X47666666Y-40354819D02*
X47333333Y-39878628D01*
X47095238Y-40354819D02*
X47095238Y-39354819D01*
X47095238Y-39354819D02*
X47476190Y-39354819D01*
X47476190Y-39354819D02*
X47571428Y-39402438D01*
X47571428Y-39402438D02*
X47619047Y-39450057D01*
X47619047Y-39450057D02*
X47666666Y-39545295D01*
X47666666Y-39545295D02*
X47666666Y-39688152D01*
X47666666Y-39688152D02*
X47619047Y-39783390D01*
X47619047Y-39783390D02*
X47571428Y-39831009D01*
X47571428Y-39831009D02*
X47476190Y-39878628D01*
X47476190Y-39878628D02*
X47095238Y-39878628D01*
X48095238Y-39831009D02*
X48428571Y-39831009D01*
X48571428Y-40354819D02*
X48095238Y-40354819D01*
X48095238Y-40354819D02*
X48095238Y-39354819D01*
X48095238Y-39354819D02*
X48571428Y-39354819D01*
X49333333Y-39831009D02*
X49000000Y-39831009D01*
X49000000Y-40354819D02*
X49000000Y-39354819D01*
X49000000Y-39354819D02*
X49476190Y-39354819D01*
X50000000Y-39354819D02*
X50000000Y-39592914D01*
X49761905Y-39497676D02*
X50000000Y-39592914D01*
X50000000Y-39592914D02*
X50238095Y-39497676D01*
X49857143Y-39783390D02*
X50000000Y-39592914D01*
X50000000Y-39592914D02*
X50142857Y-39783390D01*
X50761905Y-39354819D02*
X50761905Y-39592914D01*
X50523810Y-39497676D02*
X50761905Y-39592914D01*
X50761905Y-39592914D02*
X51000000Y-39497676D01*
X50619048Y-39783390D02*
X50761905Y-39592914D01*
X50761905Y-39592914D02*
X50904762Y-39783390D01*
X53859819Y-74633333D02*
X54574104Y-74633333D01*
X54574104Y-74633333D02*
X54716961Y-74680952D01*
X54716961Y-74680952D02*
X54812200Y-74776190D01*
X54812200Y-74776190D02*
X54859819Y-74919047D01*
X54859819Y-74919047D02*
X54859819Y-75014285D01*
X54859819Y-73633333D02*
X54859819Y-74204761D01*
X54859819Y-73919047D02*
X53859819Y-73919047D01*
X53859819Y-73919047D02*
X54002676Y-74014285D01*
X54002676Y-74014285D02*
X54097914Y-74109523D01*
X54097914Y-74109523D02*
X54145533Y-74204761D01*
X50766666Y-53704819D02*
X50766666Y-54419104D01*
X50766666Y-54419104D02*
X50719047Y-54561961D01*
X50719047Y-54561961D02*
X50623809Y-54657200D01*
X50623809Y-54657200D02*
X50480952Y-54704819D01*
X50480952Y-54704819D02*
X50385714Y-54704819D01*
X51195238Y-53800057D02*
X51242857Y-53752438D01*
X51242857Y-53752438D02*
X51338095Y-53704819D01*
X51338095Y-53704819D02*
X51576190Y-53704819D01*
X51576190Y-53704819D02*
X51671428Y-53752438D01*
X51671428Y-53752438D02*
X51719047Y-53800057D01*
X51719047Y-53800057D02*
X51766666Y-53895295D01*
X51766666Y-53895295D02*
X51766666Y-53990533D01*
X51766666Y-53990533D02*
X51719047Y-54133390D01*
X51719047Y-54133390D02*
X51147619Y-54704819D01*
X51147619Y-54704819D02*
X51766666Y-54704819D01*
X66138095Y-40554819D02*
X66138095Y-41364342D01*
X66138095Y-41364342D02*
X66185714Y-41459580D01*
X66185714Y-41459580D02*
X66233333Y-41507200D01*
X66233333Y-41507200D02*
X66328571Y-41554819D01*
X66328571Y-41554819D02*
X66519047Y-41554819D01*
X66519047Y-41554819D02*
X66614285Y-41507200D01*
X66614285Y-41507200D02*
X66661904Y-41459580D01*
X66661904Y-41459580D02*
X66709523Y-41364342D01*
X66709523Y-41364342D02*
X66709523Y-40554819D01*
X67709523Y-41554819D02*
X67138095Y-41554819D01*
X67423809Y-41554819D02*
X67423809Y-40554819D01*
X67423809Y-40554819D02*
X67328571Y-40697676D01*
X67328571Y-40697676D02*
X67233333Y-40792914D01*
X67233333Y-40792914D02*
X67138095Y-40840533D01*
X65518095Y-78754819D02*
X65518095Y-79564342D01*
X65518095Y-79564342D02*
X65565714Y-79659580D01*
X65565714Y-79659580D02*
X65613333Y-79707200D01*
X65613333Y-79707200D02*
X65708571Y-79754819D01*
X65708571Y-79754819D02*
X65899047Y-79754819D01*
X65899047Y-79754819D02*
X65994285Y-79707200D01*
X65994285Y-79707200D02*
X66041904Y-79659580D01*
X66041904Y-79659580D02*
X66089523Y-79564342D01*
X66089523Y-79564342D02*
X66089523Y-78754819D01*
X66518095Y-79707200D02*
X66660952Y-79754819D01*
X66660952Y-79754819D02*
X66899047Y-79754819D01*
X66899047Y-79754819D02*
X66994285Y-79707200D01*
X66994285Y-79707200D02*
X67041904Y-79659580D01*
X67041904Y-79659580D02*
X67089523Y-79564342D01*
X67089523Y-79564342D02*
X67089523Y-79469104D01*
X67089523Y-79469104D02*
X67041904Y-79373866D01*
X67041904Y-79373866D02*
X66994285Y-79326247D01*
X66994285Y-79326247D02*
X66899047Y-79278628D01*
X66899047Y-79278628D02*
X66708571Y-79231009D01*
X66708571Y-79231009D02*
X66613333Y-79183390D01*
X66613333Y-79183390D02*
X66565714Y-79135771D01*
X66565714Y-79135771D02*
X66518095Y-79040533D01*
X66518095Y-79040533D02*
X66518095Y-78945295D01*
X66518095Y-78945295D02*
X66565714Y-78850057D01*
X66565714Y-78850057D02*
X66613333Y-78802438D01*
X66613333Y-78802438D02*
X66708571Y-78754819D01*
X66708571Y-78754819D02*
X66946666Y-78754819D01*
X66946666Y-78754819D02*
X67089523Y-78802438D01*
X67851428Y-79231009D02*
X67994285Y-79278628D01*
X67994285Y-79278628D02*
X68041904Y-79326247D01*
X68041904Y-79326247D02*
X68089523Y-79421485D01*
X68089523Y-79421485D02*
X68089523Y-79564342D01*
X68089523Y-79564342D02*
X68041904Y-79659580D01*
X68041904Y-79659580D02*
X67994285Y-79707200D01*
X67994285Y-79707200D02*
X67899047Y-79754819D01*
X67899047Y-79754819D02*
X67518095Y-79754819D01*
X67518095Y-79754819D02*
X67518095Y-78754819D01*
X67518095Y-78754819D02*
X67851428Y-78754819D01*
X67851428Y-78754819D02*
X67946666Y-78802438D01*
X67946666Y-78802438D02*
X67994285Y-78850057D01*
X67994285Y-78850057D02*
X68041904Y-78945295D01*
X68041904Y-78945295D02*
X68041904Y-79040533D01*
X68041904Y-79040533D02*
X67994285Y-79135771D01*
X67994285Y-79135771D02*
X67946666Y-79183390D01*
X67946666Y-79183390D02*
X67851428Y-79231009D01*
X67851428Y-79231009D02*
X67518095Y-79231009D01*
X46549819Y-79633333D02*
X47264104Y-79633333D01*
X47264104Y-79633333D02*
X47406961Y-79680952D01*
X47406961Y-79680952D02*
X47502200Y-79776190D01*
X47502200Y-79776190D02*
X47549819Y-79919047D01*
X47549819Y-79919047D02*
X47549819Y-80014285D01*
X46883152Y-78728571D02*
X47549819Y-78728571D01*
X46502200Y-78966666D02*
X47216485Y-79204761D01*
X47216485Y-79204761D02*
X47216485Y-78585714D01*
X51133333Y-49579580D02*
X51085714Y-49627200D01*
X51085714Y-49627200D02*
X50942857Y-49674819D01*
X50942857Y-49674819D02*
X50847619Y-49674819D01*
X50847619Y-49674819D02*
X50704762Y-49627200D01*
X50704762Y-49627200D02*
X50609524Y-49531961D01*
X50609524Y-49531961D02*
X50561905Y-49436723D01*
X50561905Y-49436723D02*
X50514286Y-49246247D01*
X50514286Y-49246247D02*
X50514286Y-49103390D01*
X50514286Y-49103390D02*
X50561905Y-48912914D01*
X50561905Y-48912914D02*
X50609524Y-48817676D01*
X50609524Y-48817676D02*
X50704762Y-48722438D01*
X50704762Y-48722438D02*
X50847619Y-48674819D01*
X50847619Y-48674819D02*
X50942857Y-48674819D01*
X50942857Y-48674819D02*
X51085714Y-48722438D01*
X51085714Y-48722438D02*
X51133333Y-48770057D01*
X51466667Y-48674819D02*
X52085714Y-48674819D01*
X52085714Y-48674819D02*
X51752381Y-49055771D01*
X51752381Y-49055771D02*
X51895238Y-49055771D01*
X51895238Y-49055771D02*
X51990476Y-49103390D01*
X51990476Y-49103390D02*
X52038095Y-49151009D01*
X52038095Y-49151009D02*
X52085714Y-49246247D01*
X52085714Y-49246247D02*
X52085714Y-49484342D01*
X52085714Y-49484342D02*
X52038095Y-49579580D01*
X52038095Y-49579580D02*
X51990476Y-49627200D01*
X51990476Y-49627200D02*
X51895238Y-49674819D01*
X51895238Y-49674819D02*
X51609524Y-49674819D01*
X51609524Y-49674819D02*
X51514286Y-49627200D01*
X51514286Y-49627200D02*
X51466667Y-49579580D01*
X45766666Y-53744819D02*
X45766666Y-54459104D01*
X45766666Y-54459104D02*
X45719047Y-54601961D01*
X45719047Y-54601961D02*
X45623809Y-54697200D01*
X45623809Y-54697200D02*
X45480952Y-54744819D01*
X45480952Y-54744819D02*
X45385714Y-54744819D01*
X46147619Y-53744819D02*
X46766666Y-53744819D01*
X46766666Y-53744819D02*
X46433333Y-54125771D01*
X46433333Y-54125771D02*
X46576190Y-54125771D01*
X46576190Y-54125771D02*
X46671428Y-54173390D01*
X46671428Y-54173390D02*
X46719047Y-54221009D01*
X46719047Y-54221009D02*
X46766666Y-54316247D01*
X46766666Y-54316247D02*
X46766666Y-54554342D01*
X46766666Y-54554342D02*
X46719047Y-54649580D01*
X46719047Y-54649580D02*
X46671428Y-54697200D01*
X46671428Y-54697200D02*
X46576190Y-54744819D01*
X46576190Y-54744819D02*
X46290476Y-54744819D01*
X46290476Y-54744819D02*
X46195238Y-54697200D01*
X46195238Y-54697200D02*
X46147619Y-54649580D01*
X45933333Y-49579580D02*
X45885714Y-49627200D01*
X45885714Y-49627200D02*
X45742857Y-49674819D01*
X45742857Y-49674819D02*
X45647619Y-49674819D01*
X45647619Y-49674819D02*
X45504762Y-49627200D01*
X45504762Y-49627200D02*
X45409524Y-49531961D01*
X45409524Y-49531961D02*
X45361905Y-49436723D01*
X45361905Y-49436723D02*
X45314286Y-49246247D01*
X45314286Y-49246247D02*
X45314286Y-49103390D01*
X45314286Y-49103390D02*
X45361905Y-48912914D01*
X45361905Y-48912914D02*
X45409524Y-48817676D01*
X45409524Y-48817676D02*
X45504762Y-48722438D01*
X45504762Y-48722438D02*
X45647619Y-48674819D01*
X45647619Y-48674819D02*
X45742857Y-48674819D01*
X45742857Y-48674819D02*
X45885714Y-48722438D01*
X45885714Y-48722438D02*
X45933333Y-48770057D01*
X46314286Y-48770057D02*
X46361905Y-48722438D01*
X46361905Y-48722438D02*
X46457143Y-48674819D01*
X46457143Y-48674819D02*
X46695238Y-48674819D01*
X46695238Y-48674819D02*
X46790476Y-48722438D01*
X46790476Y-48722438D02*
X46838095Y-48770057D01*
X46838095Y-48770057D02*
X46885714Y-48865295D01*
X46885714Y-48865295D02*
X46885714Y-48960533D01*
X46885714Y-48960533D02*
X46838095Y-49103390D01*
X46838095Y-49103390D02*
X46266667Y-49674819D01*
X46266667Y-49674819D02*
X46885714Y-49674819D01*
X50333333Y-68559580D02*
X50285714Y-68607200D01*
X50285714Y-68607200D02*
X50142857Y-68654819D01*
X50142857Y-68654819D02*
X50047619Y-68654819D01*
X50047619Y-68654819D02*
X49904762Y-68607200D01*
X49904762Y-68607200D02*
X49809524Y-68511961D01*
X49809524Y-68511961D02*
X49761905Y-68416723D01*
X49761905Y-68416723D02*
X49714286Y-68226247D01*
X49714286Y-68226247D02*
X49714286Y-68083390D01*
X49714286Y-68083390D02*
X49761905Y-67892914D01*
X49761905Y-67892914D02*
X49809524Y-67797676D01*
X49809524Y-67797676D02*
X49904762Y-67702438D01*
X49904762Y-67702438D02*
X50047619Y-67654819D01*
X50047619Y-67654819D02*
X50142857Y-67654819D01*
X50142857Y-67654819D02*
X50285714Y-67702438D01*
X50285714Y-67702438D02*
X50333333Y-67750057D01*
X51285714Y-68654819D02*
X50714286Y-68654819D01*
X51000000Y-68654819D02*
X51000000Y-67654819D01*
X51000000Y-67654819D02*
X50904762Y-67797676D01*
X50904762Y-67797676D02*
X50809524Y-67892914D01*
X50809524Y-67892914D02*
X50714286Y-67940533D01*
D12*
%TO.C,J1*%
X48205000Y-72970000D02*
X48205000Y-75630000D01*
X50805000Y-72970000D02*
X48205000Y-72970000D01*
X50805000Y-72970000D02*
X50805000Y-75630000D01*
X50805000Y-75630000D02*
X48205000Y-75630000D01*
X52075000Y-72970000D02*
X53405000Y-72970000D01*
X53405000Y-72970000D02*
X53405000Y-74300000D01*
%TO.C,J2*%
X49770000Y-55250000D02*
X51100000Y-55250000D01*
X49770000Y-56580000D02*
X49770000Y-55250000D01*
X49770000Y-57850000D02*
X49770000Y-65530000D01*
X49770000Y-57850000D02*
X52430000Y-57850000D01*
X49770000Y-65530000D02*
X52430000Y-65530000D01*
X52430000Y-57850000D02*
X52430000Y-65530000D01*
%TO.C,U1*%
X57760000Y-39800000D02*
X57760000Y-42470000D01*
X57760000Y-45010000D02*
X57760000Y-83240000D01*
X57760000Y-83240000D02*
X62840000Y-83240000D01*
X60430000Y-42470000D02*
X57760000Y-42470000D01*
X60430000Y-45010000D02*
X57760000Y-45010000D01*
X60430000Y-45010000D02*
X60430000Y-42470000D01*
X60430000Y-45010000D02*
X60430000Y-80570000D01*
X60430000Y-80570000D02*
X57760000Y-80570000D01*
X62840000Y-75360000D02*
X70720000Y-75360000D01*
X62840000Y-85780000D02*
X62840000Y-75360000D01*
X70720000Y-75360000D02*
X70720000Y-85780000D01*
X70720000Y-85780000D02*
X62840000Y-85780000D01*
X73130000Y-42470000D02*
X73130000Y-80570000D01*
X73130000Y-42470000D02*
X75800000Y-42470000D01*
X73130000Y-80570000D02*
X75800000Y-80570000D01*
X75800000Y-39800000D02*
X57760000Y-39800000D01*
X75800000Y-83240000D02*
X70720000Y-83240000D01*
X75800000Y-83240000D02*
X75800000Y-39800000D01*
%TO.C,J4*%
X48095000Y-80630000D02*
X48095000Y-79300000D01*
X49425000Y-80630000D02*
X48095000Y-80630000D01*
X50695000Y-77970000D02*
X53295000Y-77970000D01*
X50695000Y-80630000D02*
X50695000Y-77970000D01*
X50695000Y-80630000D02*
X53295000Y-80630000D01*
X53295000Y-80630000D02*
X53295000Y-77970000D01*
%TO.C,C3*%
X51038748Y-50165000D02*
X51561252Y-50165000D01*
X51038748Y-51635000D02*
X51561252Y-51635000D01*
%TO.C,J3*%
X44770000Y-55290000D02*
X46100000Y-55290000D01*
X44770000Y-56620000D02*
X44770000Y-55290000D01*
X44770000Y-57890000D02*
X44770000Y-63030000D01*
X44770000Y-57890000D02*
X47430000Y-57890000D01*
X44770000Y-63030000D02*
X47430000Y-63030000D01*
X47430000Y-57890000D02*
X47430000Y-63030000D01*
%TO.C,C2*%
X45838748Y-50165000D02*
X46361252Y-50165000D01*
X45838748Y-51635000D02*
X46361252Y-51635000D01*
%TO.C,C1*%
X50761252Y-69165000D02*
X50238748Y-69165000D01*
X50761252Y-70635000D02*
X50238748Y-70635000D01*
%TD*%
%LPC*%
D13*
%TO.C,*%
X67100000Y-82100000D03*
%TD*%
%TO.C,REF\u002A\u002A*%
X49000000Y-43900000D03*
%TD*%
D14*
%TO.C,J1*%
X52075000Y-74300000D03*
D15*
X49535000Y-74300000D03*
%TD*%
D14*
%TO.C,J2*%
X51100000Y-56580000D03*
D15*
X51100000Y-59120000D03*
X51100000Y-61660000D03*
X51100000Y-64200000D03*
%TD*%
D16*
%TO.C,U1*%
X59160000Y-43740000D03*
D17*
X59160000Y-46280000D03*
X59160000Y-48820000D03*
X59160000Y-51360000D03*
X59160000Y-53900000D03*
X59160000Y-56440000D03*
X59160000Y-58980000D03*
X59160000Y-61520000D03*
X59160000Y-64060000D03*
X59160000Y-66600000D03*
X59160000Y-69140000D03*
X59160000Y-71680000D03*
X59160000Y-74220000D03*
X59160000Y-76760000D03*
X59160000Y-79300000D03*
X74400000Y-79300000D03*
X74400000Y-76760000D03*
X74400000Y-74220000D03*
X74400000Y-71680000D03*
X74400000Y-69140000D03*
X74400000Y-66600000D03*
X74400000Y-64060000D03*
X74400000Y-61520000D03*
X74400000Y-58980000D03*
X74400000Y-56440000D03*
X74400000Y-53900000D03*
X74400000Y-51360000D03*
X74400000Y-48820000D03*
X74400000Y-46280000D03*
X74400000Y-43740000D03*
%TD*%
D14*
%TO.C,J4*%
X49425000Y-79300000D03*
D15*
X51965000Y-79300000D03*
%TD*%
D18*
%TO.C,C3*%
X50262500Y-50900000D03*
X52337500Y-50900000D03*
%TD*%
D14*
%TO.C,J3*%
X46100000Y-56620000D03*
D15*
X46100000Y-59160000D03*
X46100000Y-61700000D03*
%TD*%
D18*
%TO.C,C2*%
X45062500Y-50900000D03*
X47137500Y-50900000D03*
%TD*%
D19*
%TO.C,C1*%
X51537500Y-69900000D03*
X49462500Y-69900000D03*
%TD*%
%LPD*%
M02*
